1.8Hz3min_grf.mot
version=1
nRows=30
nColumns 19
inDegrees=yes
endheader
time	1_ground_force_vx	1_ground_force_vy	1_ground_force_vz	1_ground_force_px	1_ground_force_py	1_ground_force_pz	1_ground_torque_x	1_ground_torque_y	1_ground_torque_z	2_ground_force_vx	2_ground_force_vy	2_ground_force_vz	2_ground_force_px	2_ground_force_py	2_ground_force_pz	2_ground_torque_x	2_ground_torque_y	2_ground_torque_z
            0.005000	           70.453111	          750.170523	          -55.655601	           -0.299492	            0.005994	           -0.354771	            0.376647	            4.010464	           -0.297539	           39.619384	          688.412332	           78.180809	           -0.294689	            0.005691	           -0.773673	           -0.212635	           -3.694672	           -0.419592
            0.005500	           67.654825	          746.028425	          -56.721129	           -0.299255	            0.005994	           -0.354826	            0.363031	            4.003137	           -0.304362	           36.447048	          684.716554	           78.544448	           -0.293850	            0.005695	           -0.773840	           -0.191544	           -3.598460	           -0.412783
            0.006000	           65.224305	          743.146064	          -57.277737	           -0.298443	            0.005994	           -0.354621	            0.340712	            3.881968	           -0.299201	           33.415506	          681.019275	           79.471164	           -0.293347	            0.005697	           -0.773962	           -0.175301	           -3.572701	           -0.416914
            0.006500	           62.701142	          741.166420	          -58.151240	           -0.297643	            0.005993	           -0.354505	            0.325153	            3.843513	           -0.301558	           30.148740	          677.507741	           79.694722	           -0.292323	            0.005701	           -0.774034	           -0.151490	           -3.404308	           -0.400446
            0.007000	           59.996960	          738.101351	          -58.157668	           -0.296952	            0.005992	           -0.354259	            0.306160	            3.766475	           -0.296774	           27.349399	          674.364171	           80.482518	           -0.291674	            0.005703	           -0.774126	           -0.137178	           -3.382460	           -0.403682
            0.007500	           57.108260	          734.497642	          -58.670378	           -0.296455	            0.005993	           -0.354312	            0.291722	            3.751984	           -0.299702	           24.319748	          670.115368	           81.172630	           -0.290851	            0.005707	           -0.774209	           -0.124521	           -3.431104	           -0.415618
            0.008000	           54.311305	          731.794917	          -59.087732	           -0.295761	            0.005992	           -0.354175	            0.266290	            3.588010	           -0.289709	           21.707137	          667.156677	           81.961003	           -0.290034	            0.005710	           -0.774319	           -0.110492	           -3.395922	           -0.417193
            0.008500	           51.101202	          727.831536	          -59.830467	           -0.295160	            0.005992	           -0.354173	            0.243082	            3.462208	           -0.284606	           18.768491	          663.644988	           82.559847	           -0.289466	            0.005713	           -0.774575	           -0.093583	           -3.309041	           -0.411657
            0.009000	           48.440912	          725.490684	          -60.567611	           -0.294298	            0.005992	           -0.353965	            0.227665	            3.409704	           -0.284659	           15.635857	          661.973649	           83.306118	           -0.288485	            0.005717	           -0.774683	           -0.075329	           -3.189199	           -0.401345
            0.009500	           45.413319	          721.889308	          -61.630244	           -0.293915	            0.005992	           -0.354023	            0.213419	            3.392510	           -0.289631	           12.414801	          658.829059	           83.953317	           -0.288034	            0.005719	           -0.774864	           -0.059661	           -3.166111	           -0.403451
            0.010000	           42.570192	          719.727734	          -62.136884	           -0.293152	            0.005992	           -0.353910	            0.194052	            3.280815	           -0.283245	            9.568461	          655.686613	           84.412643	           -0.287075	            0.005723	           -0.774876	           -0.044914	           -3.077742	           -0.396226
            0.010500	           39.359194	          716.306618	          -63.198296	           -0.292552	            0.005992	           -0.353869	            0.176710	            3.215981	           -0.283740	            6.388417	          654.198348	           85.394224	           -0.286191	            0.005726	           -0.775007	           -0.029594	           -3.030587	           -0.395590
            0.011000	           36.837901	          714.684103	          -63.290699	           -0.291712	            0.005991	           -0.353596	            0.162650	            3.155542	           -0.279447	            3.498031	          650.317877	           86.179447	           -0.285573	            0.005729	           -0.775072	           -0.016352	           -3.040066	           -0.402866
            0.011500	           33.995802	          711.259323	          -63.481754	           -0.291222	            0.005991	           -0.353579	            0.146062	            3.055896	           -0.272747	            0.506571	          648.463301	           86.831145	           -0.284672	            0.005733	           -0.775261	           -0.002375	           -3.040100	           -0.407078
            0.012000	           31.106691	          709.278232	          -64.033360	           -0.290516	            0.005990	           -0.353415	            0.125891	            2.870499	           -0.259147	           -2.433468	          645.320395	           87.290511	           -0.284073	            0.005735	           -0.775364	            0.010929	           -2.898161	           -0.392025
            0.012500	           28.491811	          704.955873	          -65.100116	           -0.290151	            0.005991	           -0.353598	            0.112112	            2.773930	           -0.256162	           -5.475162	          644.386794	           87.804722	           -0.283233	            0.005739	           -0.775580	            0.024747	           -2.912544	           -0.396866
            0.013000	           25.739787	          703.516166	          -65.787315	           -0.289258	            0.005990	           -0.353434	            0.100058	            2.734772	           -0.255734	           -8.513512	          642.532384	           88.362584	           -0.282491	            0.005742	           -0.775512	            0.036903	           -2.785181	           -0.383025
            0.013500	           22.987962	          700.994803	          -66.479153	           -0.288801	            0.005990	           -0.353395	            0.087350	            2.663642	           -0.252608	          -11.551677	          640.676344	           89.342807	           -0.281668	            0.005745	           -0.775531	            0.049186	           -2.727962	           -0.380416
            0.014000	           20.373226	          699.014945	          -67.306569	           -0.288145	            0.005990	           -0.353392	            0.077397	            2.655520	           -0.255694	          -14.215934	          639.007701	           89.807310	           -0.281235	            0.005746	           -0.775539	            0.060275	           -2.709363	           -0.380779
            0.014500	           17.622554	          697.032308	          -67.491668	           -0.287380	            0.005989	           -0.353112	            0.063728	            2.520651	           -0.244068	          -17.301675	          637.336197	           90.647417	           -0.280344	            0.005751	           -0.775902	            0.070629	           -2.601725	           -0.370040
            0.015000	           15.238591	          695.229916	          -67.676906	           -0.286814	            0.005989	           -0.353017	            0.052872	            2.412183	           -0.234813	          -19.685436	          635.852146	           91.253234	           -0.279644	            0.005754	           -0.776017	            0.081460	           -2.631203	           -0.377613
            0.015500	           12.579083	          693.608676	          -68.044110	           -0.286173	            0.005989	           -0.353071	            0.041073	            2.264748	           -0.222175	          -22.723747	          633.997401	           91.904953	           -0.279053	            0.005756	           -0.776190	            0.091086	           -2.541324	           -0.368393
            0.016000	           10.101842	          691.809019	          -68.871110	           -0.285650	            0.005989	           -0.353066	            0.032444	            2.221880	           -0.221193	          -25.249989	          633.064824	           92.653593	           -0.278338	            0.005759	           -0.776149	            0.101890	           -2.554569	           -0.373880
            0.016500	            7.854106	          690.909978	          -69.511375	           -0.284947	            0.005989	           -0.352840	            0.023795	            2.093164	           -0.210590	          -28.009979	          631.948660	           93.026251	           -0.277837	            0.005761	           -0.776333	            0.109751	           -2.476144	           -0.364502
            0.017000	            5.423735	          687.847247	          -70.022904	           -0.284624	            0.005989	           -0.352938	            0.015965	            2.024663	           -0.206111	          -30.626659	          630.095482	           93.630869	           -0.277240	            0.005764	           -0.776454	            0.115589	           -2.378059	           -0.353375
            0.017500	            3.175623	          688.390528	          -70.702852	           -0.283944	            0.005988	           -0.352641	            0.009659	            2.093794	           -0.215048	          -33.483490	          629.898117	           94.429198	           -0.276603	            0.005766	           -0.776484	            0.123589	           -2.324985	           -0.348543
            0.018000	            0.744943	          685.147968	          -71.352711	           -0.283335	            0.005989	           -0.352910	            0.002145	            1.973253	           -0.205499	          -35.823683	          629.334787	           95.132152	           -0.275780	            0.005769	           -0.776514	            0.129737	           -2.279157	           -0.344524
            0.018500	           -1.638907	          684.606938	          -71.394966	           -0.282996	            0.005988	           -0.352589	           -0.004376	            1.828076	           -0.190643	          -38.631566	          628.584392	           96.163138	           -0.275314	            0.005771	           -0.776609	            0.140358	           -2.283795	           -0.349383
            0.019000	           -3.840230	          683.706923	          -71.806084	           -0.282363	            0.005987	           -0.352479	           -0.009587	            1.706926	           -0.179269	          -40.976571	          629.311326	           96.495251	           -0.274803	            0.005774	           -0.776791	            0.143178	           -2.198898	           -0.337167
            0.019500	           -5.858376	          682.627163	          -72.310119	           -0.281867	            0.005988	           -0.352534	           -0.013643	            1.589687	           -0.168394	          -43.502091	          628.194045	           97.384026	           -0.274352	            0.005775	           -0.776625	            0.146726	           -2.118804	           -0.328462
